<?xml version="1.0" encoding="utf-8" standalone="no"?>
<!-- Generator: Adobe Illustrator 23.0.2, SVG Export Plug-In . SVG Version: 6.00 Build 0)  --><svg xmlns="http://www.w3.org/2000/svg" xmlns:xlink="http://www.w3.org/1999/xlink" id="Layer_1" style="enable-background:new 0 0 144 36;" version="1.1" viewBox="0 0 144 36" x="0px" xml:space="preserve" y="0px">
<style type="text/css">
	.st0{fill:#333333;}
</style>
<g>
	<g id="XMLID_1_">
		<g>
			<path class="st0" d="M143.8,19c0.2,0.5,0.3,1,0.2,1.5c-0.6,0.7-1.8,1-2.6,1.2s-5.4,1.5-6.8,2.4c-1.5,1-3.7,2.2-4.3,2.7     s-1,0.7-1.1,1.2c-0.1,1.1,1.7,5.2,2.3,5.4c0.5,0.2,1.9,0.5,2.5,0.8s0.9,1.3,0.3,1.3H129c-0.8,0-1.8-2-5.3-4     c-0.7-0.3-1.1,0.4-1.3,0.7c-0.2,0.3-0.6,0.8-0.6,1.1c0,0.5,1.4,0.5,2,0.8c0.3,0.1,0.6,0.4,0.7,0.7c0.2,0.3,0,0.7-0.4,0.7h-4.3     c-0.4,0-0.7,0-1.1-1c-0.1-0.3-0.3-0.6-0.4-1.1c-0.5-1.4,0.1-2.6,0.3-4c-0.4-0.4-0.8-0.4-1.5-0.3c-0.6,0-2.2,0.2-2.8,0.6     c-0.5,0.4,0,1.4,0.3,1.9s0.7,1.8,1.5,2c1,0.2,1.7,0.6,1.9,1c0.1,0.1,0.1,0.2,0.1,0.3c0,0.5-0.2,0.7-0.7,0.6h-4.6     c-0.6,0-2.1-2.4-4.6-3.8c-0.9,0.1-1.5,0.5-2.2,1.1c-0.3,0.3-0.6,0.6-0.3,0.9c0.3,0.3,0.6,0.2,1,0.3c0.5,0.1,0.9,0.4,1,0.8     c0,0.2,0.2,0.7-0.2,0.7H102c-0.2,0-0.4-0.1-0.5-0.3c-0.2-1.1,0.1-2.1,0.3-3.2c0.3-1.1,1.1-2.8,1.2-3.4s-1-3.3-1.3-4.3     c-0.3-1-1-3.4-0.5-4.3c0.7-1.7,2.6-5.7,6.6-6.8c1.7-0.5,3.8-0.2,5.2,0c1.5,0.2,3.4,0.5,5.1,0.5c3,0.2,5.9-0.1,8.7-0.6     c2.3,0.2,4.4,0.8,6.6,1.3c0.6,0,0.8-0.8,1.3-0.5c0.6,0.4,1.1,1.1,1.9,0.7c0.1-0.1,0.4-0.2,0.5-0.1c0.4,0.4,0.7,0.8,1.1,1.1     c0.4,0.3,2.2,0.5,2.8,1.5C141.7,18.3,142.8,18.5,143.8,19z"/>
			<path class="st0" d="M137.9,33.6c0-0.3-0.2-0.3-0.5-0.3H137V34h0.4C137.7,33.9,137.9,33.9,137.9,33.6z M137.7,34.2l0.6,0.9h-0.4     l-0.6-0.9H137v0.9h-0.3V33h0.8c0.5,0,0.8,0.2,0.8,0.6C138.2,34,138,34.1,137.7,34.2z"/>
			<path class="st0" d="M138.9,34c0-0.9-0.7-1.5-1.5-1.5s-1.5,0.7-1.5,1.5c0,0.9,0.7,1.5,1.5,1.5C138.2,35.6,138.9,34.9,138.9,34z      M139.2,34c0,1.1-0.9,1.8-1.9,1.8s-1.9-0.8-1.9-1.8s0.9-1.8,1.9-1.8C138.4,32.2,139.2,33,139.2,34z"/>
			<path class="st0" d="M100.3,35.5h-7.8c-0.3-0.1-0.6-0.4-0.8-0.7c-1.7-2.2-2.2-4.5-2.2-7.1s-1.9-6.8-5.5-6.8c-2,0-2.8,0-2.8,0     v14.6h-7.4V0.1h7.4v5.3c0,0,0.5-1.1,2.2-2.8S86,0.5,86,0.5c1.6,0,3.4-0.1,4.8,0.4c4.3,1.6,7.1,5.6,7.1,10.1     c0,2.8-1.8,6.9-4.4,8.5c-0.2,0.1-0.4,0.3-0.2,0.6c0.8,1,1.4,2,1.9,3.1c1.2,2.9,0.6,6.5,2.3,9.1C98.4,33.5,99.2,34.8,100.3,35.5z      M88.3,14.2c0,0,2.8-0.2,2.8-3.2s-2.7-3.1-2.8-3.1h-7v6.3C81.3,14.2,88.3,14.2,88.3,14.2z"/>
			<path class="st0" d="M72.4,0.1v35.4h-7.6V21h-9.4c0.1-0.2-0.2,0,0,0v14.5h-7.5V0.1h7.5V14h9.4V0.1H72.4z"/>
			<path class="st0" d="M55.4,21C55.3,21,55.5,20.9,55.4,21L55.4,21z"/>
			<path class="st0" d="M46.3,0.1c0,0.8,0,1.8,0,2.9c0,2.2,0,4.4,0,4.4H32.8v6.7H44V21H32.8v7.9h13.5v6.6H25.6V0.1h7.2v5.7     c0,0,0.3-1.3,2-3.3S37.6,0,37.6,0L46.3,0.1z"/>
			<path class="st0" d="M19.6,2.3c3.2,2.4,5.3,6.5,4.3,10.9c-0.4,1.6-1.1,3.3-2.2,4.5V18c0.8,1.1,1.5,2.2,1.9,3.4     c1.4,4.1,0,8.6-3,11.2c-1.6,1.5-4,2.8-7.4,2.8S0,35.5,0,35.5V0.1h7.4v5.7c0,0,0.4-1.4,1.8-3.1s2.5-2.3,2.5-2.3     C14.9,0.4,17.2,0.6,19.6,2.3z M13.7,28.7c0,0,3.4,0.1,3.4-3.8s-3.4-3.8-3.4-3.8H7.4v7.6C7.4,28.7,13.7,28.7,13.7,28.7z      M16.9,10.8c0-3.4-3.4-3.2-3.4-3.2H7.4V14h6.1C13.6,14,16.9,14.1,16.9,10.8z"/>
		</g>
	</g>
</g>
</svg>
