<?xml version="1.0" encoding="iso-8859-1"?>
<!-- Generator: Adobe Illustrator 16.0.0, SVG Export Plug-In . SVG Version: 6.00 Build 0)  -->
<!DOCTYPE svg PUBLIC "-//W3C//DTD SVG 1.0//EN" "http://www.w3.org/TR/2001/REC-SVG-20010904/DTD/svg10.dtd">
<svg version="1.0" id="Layer_1" xmlns="http://www.w3.org/2000/svg" xmlns:xlink="http://www.w3.org/1999/xlink" x="0px" y="0px"
	 width="257px" height="136.3px" viewBox="0 0 257 136.3" enable-background="new 0 0 257 136.3" xml:space="preserve">
<g>
	<defs>
		<rect id="SVGID_1_" x="-13" y="-7" width="283.5" height="149.3"/>
	</defs>
	<clipPath id="SVGID_2_">
		<use xlink:href="#SVGID_1_"  overflow="visible"/>
	</clipPath>
	<path clip-path="url(#SVGID_2_)" fill="#76528F" d="M139.4,20.7c-1,0.7-2.5,1.2-4.1,1.2c-0.6,0-1.3-0.1-1.9-0.3c0,0.1,0,0.2,0,0.3
		c0,1.8-0.9,4.3-2.9,5.9c0.6,0.8,1.2,1.6,1.8,2.4l0.8,1c0,0,0.1,0.1,0.1,0.1c0.9-1.4,2.1-2.5,3.3-3.4c1.3-0.9,3.2-1.6,5.2-1.6
		c0.6,0,1.2,0.1,1.9,0.2c-0.4-0.7-0.9-1.4-1.4-2C141.2,23.2,140.3,22,139.4,20.7"/>
	<path clip-path="url(#SVGID_2_)" fill="#1C75BC" d="M136.3,37.4c0,0.1,0.1,0.2,0.1,0.3c0.1-0.1,0.1-0.1,0.2-0.2c0,0,0-0.1,0.1-0.1
		C136.5,37.4,136.4,37.4,136.3,37.4"/>
	<path clip-path="url(#SVGID_2_)" fill="#434090" d="M141.7,26.3c-2.1,0-4,0.7-5.2,1.6c-1.2,0.8-2.3,1.9-3.3,3.4
		c1.4,1.9,2.4,3.9,3.2,6.1c0.1,0,0.2,0,0.4,0c2.2-2.5,5.3-4.9,9.5-6c-0.7-1.6-1.6-3.3-2.6-4.9C142.9,26.4,142.3,26.3,141.7,26.3"/>
	<path clip-path="url(#SVGID_2_)" fill="#3E78AB" d="M148.8,40.9c-0.5,0.6-1,1.2-1.6,1.6c-1.9,1.5-4.5,2.7-7.7,2.7h0h-0.1
		c-0.5,0-1.1,0-1.6,0c1.3,0.9,2.5,1.9,3.9,2.8c2.8,1.9,4.7,4.2,5.9,6.6c1-2.8,1.5-5.5,1.5-8C149.2,44.8,149.1,42.9,148.8,40.9"/>
	<path clip-path="url(#SVGID_2_)" fill="#1A5193" d="M146.6,32.5c-1,1.8-2.6,3.1-4.1,3.8c-1.5,0.7-3.3,1.2-5.4,1.2
		c-0.2,0-0.4,0-0.5,0c0,0,0,0.1-0.1,0.1c-0.1,0.1-0.1,0.1-0.2,0.2c0.7,2.3,1.1,4.7,1.1,7.3c0.1,0.1,0.2,0.2,0.3,0.2
		c0.5,0,1.1,0,1.6,0h0.1h0c3.2,0,5.8-1.2,7.7-2.7c0.5-0.4,1.1-1,1.6-1.6C148.4,38.2,147.7,35.3,146.6,32.5"/>
	<path clip-path="url(#SVGID_2_)" fill="#2E3192" d="M146.2,31.4c-4.2,1.1-7.3,3.5-9.5,6c0.2,0,0.4,0,0.5,0c2,0,3.8-0.5,5.4-1.2
		c1.4-0.6,3-2,4.1-3.8C146.5,32.1,146.3,31.8,146.2,31.4"/>
	<path clip-path="url(#SVGID_2_)" fill="#48A842" d="M116.4,61c-0.4,1.3-1,2.4-1.6,3.4c-0.8,1.4-2.3,2.8-4.1,3.8
		c3.4,1.8,7.7,3,12.7,3c1.5,0,2.9-0.1,4.3-0.3c-1.6-1.5-2.7-3.2-3.3-4.8c-0.2-0.5-0.3-0.9-0.5-1.4C121.4,63.4,118.9,62.1,116.4,61"
		/>
	<path clip-path="url(#SVGID_2_)" fill="#17824B" d="M117.2,57.3c-0.1,1.3-0.4,2.6-0.8,3.7c2.5,1.2,4.9,2.4,7.5,3.7
		c-0.5-1.9-0.9-4-0.7-6.2C120.8,58.4,118.9,58,117.2,57.3"/>
	<path clip-path="url(#SVGID_2_)" fill="#48A842" d="M135.1,52.6c-0.6,1-1.4,1.9-2.3,2.7c0.4,0.5,0.7,1,1,1.4
		c1.8,2.8,3,7.7,0.9,12.2c4.7-2.1,8.1-5.4,10.4-9.1c-2.3-0.4-4.6-1.4-6.9-3.4C136.9,55.1,135.9,53.9,135.1,52.6"/>
	<path clip-path="url(#SVGID_2_)" fill="#2D7D2F" d="M137.8,45.2c-0.1,0-0.2,0-0.3,0c0,0,0,0,0,0.1c0,0.1-0.2,3.8-2.4,7.3
		c0.7,1.3,1.8,2.5,3.1,3.7c2.3,2,4.6,3.1,6.9,3.4c1-1.7,1.9-3.4,2.5-5.1c-1.2-2.4-3.1-4.8-5.9-6.6C140.3,47.1,139,46.2,137.8,45.2"
		/>
	<path clip-path="url(#SVGID_2_)" fill="#3D505A" d="M137.5,45c0,0.1,0,0.2,0,0.2c0.1,0,0.2,0,0.3,0C137.7,45.2,137.6,45.1,137.5,45
		"/>
	<path clip-path="url(#SVGID_2_)" fill="#00984A" d="M132.8,55.3C132.8,55.3,132.7,55.3,132.8,55.3c-0.2,2.7-0.3,5.4-0.5,7.9
		c-0.2,1.8-0.8,2.9-1.5,3.2c-0.3,0.2-0.7,0.4-1.3,0.4c-0.6,0-1.4-0.2-2.3-0.6c-1.1-0.5-2.2-1-3.3-1.6c0.1,0.5,0.3,1,0.5,1.4
		c0.6,1.6,1.7,3.3,3.3,4.8c2.6-0.4,4.9-1,7-2c2.1-4.5,0.9-9.4-0.9-12.2C133.5,56.3,133.2,55.8,132.8,55.3"/>
	<path clip-path="url(#SVGID_2_)" fill="#007E46" d="M132.7,55.4c-2.1,1.8-5,3.1-9.3,3.1c-0.1,0-0.2,0-0.2,0
		c-0.1,2.3,0.2,4.3,0.7,6.2c1.1,0.5,2.2,1,3.3,1.6c0.9,0.4,1.6,0.6,2.3,0.6c0.6,0,1-0.1,1.3-0.4c0.7-0.3,1.4-1.4,1.5-3.2
		C132.5,60.7,132.6,58,132.7,55.4"/>
	<path clip-path="url(#SVGID_2_)" fill="#48A842" d="M97.9,49.1c0.8,6.6,4.7,14.7,12.7,19.1c-1-2.3-1.7-5-1.6-8.1c0-1,0.1-2,0.1-3
		c-2-1.6-3.6-3.5-4.8-5.4C102.1,50.8,100.1,49.9,97.9,49.1"/>
	<path clip-path="url(#SVGID_2_)" fill="#17824B" d="M104.3,51.7c1.2,1.9,2.8,3.8,4.8,5.4c0-1.2,0-2.3-0.1-3.5
		c-0.3-0.1-0.5-0.1-0.8-0.3C106.9,52.7,105.5,52.2,104.3,51.7"/>
	<path clip-path="url(#SVGID_2_)" fill="#00984A" d="M109.1,57c0,1,0,2-0.1,3c-0.1,3.1,0.5,5.8,1.6,8.1c0,0,0.1,0,0.1,0
		c1.8-1,3.2-2.5,4.1-3.8c0.6-1,1.2-2.1,1.6-3.4c-0.8-0.4-1.6-0.7-2.5-1.1C112.1,59.1,110.5,58.1,109.1,57"/>
	<path clip-path="url(#SVGID_2_)" fill="#007E46" d="M111.8,52.6c-0.2,0.3-0.4,0.5-0.6,0.6c-0.3,0.2-0.7,0.4-1.3,0.4
		c-0.3,0-0.6,0-0.9-0.1c0,1.2,0,2.3,0.1,3.5c1.4,1.1,3,2.1,4.8,2.8c0.8,0.4,1.7,0.7,2.5,1.1c0.4-1.1,0.7-2.4,0.8-3.7
		C114.7,56.2,113,54.5,111.8,52.6"/>
	<path clip-path="url(#SVGID_2_)" fill="#3E78AB" d="M104.1,25.4c-5,7.1-6.5,14.8-6.4,21.3c0,0.6,0,1.3,0.1,2c1.1-1.1,2.5-2,4.1-2.8
		c-0.8-4.4,0.2-9.8,4.9-13.8c-0.2-0.2-0.4-0.5-0.5-0.7C105.2,29.8,104.3,27.8,104.1,25.4"/>
	<path clip-path="url(#SVGID_2_)" fill="#17629E" d="M106.9,32c-4.8,4-5.7,9.4-4.9,13.8c0.3-0.1,0.6-0.3,0.9-0.4
		c2.3-0.9,4.5-2.1,6.7-3.1c0.3-2.7,1-5.2,2.1-7.5C109.6,34.4,108,33.2,106.9,32"/>
	<path clip-path="url(#SVGID_2_)" fill="#2D7D2F" d="M102,45.8c-1.6,0.8-3,1.7-4.1,2.8c0,0.1,0,0.3,0,0.4c2.1,0.8,4.2,1.7,6.4,2.6
		c-0.2-0.4-0.4-0.7-0.6-1.1C102.9,49.3,102.3,47.6,102,45.8"/>
	<path clip-path="url(#SVGID_2_)" fill="#00723F" d="M109.5,42.3c-2.2,1.1-4.5,2.2-6.7,3.1c-0.3,0.1-0.6,0.2-0.9,0.4
		c0.3,1.8,0.9,3.5,1.7,4.8c0.2,0.4,0.4,0.7,0.6,1.1c1.3,0.5,2.6,1.1,4,1.6c0.3,0.1,0.6,0.2,0.8,0.3c0-2-0.1-4,0-5.9
		c0-0.8,0.2-1.4,0.4-1.9c0-0.2,0-0.4,0-0.4C109.4,44.3,109.4,43.3,109.5,42.3"/>
	<path clip-path="url(#SVGID_2_)" fill="#00723F" d="M109.4,45.7c-0.2,0.5-0.4,1.1-0.4,1.9c-0.1,1.9,0,3.9,0,5.9
		c0.3,0.1,0.6,0.1,0.9,0.1c0.6,0,1-0.1,1.3-0.4c0.2-0.1,0.4-0.3,0.6-0.6C110,49.8,109.5,46.8,109.4,45.7"/>
	<path clip-path="url(#SVGID_2_)" fill="#F37021" d="M123.4,0.8c-0.1,0-0.3,0-0.3,0c-1,0-2.3,0.8-3.6,2.2c1.6,0.7,2.9,1.8,3.6,2.9
		c0.5,0.7,1,1.6,1.4,2.5c0.4-0.3,0.7-0.5,1-0.5c0,0,0.1,0,0.1,0c0,0,0.1,0,0.1,0c0.4,0,0.9,0.3,1.4,1c0.6,0.8,1.1,1.7,1.7,2.5
		c0.6-1.1,1.3-2.1,2.1-2.7c0.1-0.1,0.3-0.2,0.4-0.3c-0.9-1.4-1.9-2.8-2.9-4.2c-1.5-2.1-3.2-3.2-4.4-3.3
		C123.9,0.8,123.6,0.8,123.4,0.8"/>
	<path clip-path="url(#SVGID_2_)" fill="#FAA61A" d="M125.3,12.2c0,0.4,0,0.8,0,1.2c-0.1,2.3,0,4.8,0,7.1c1.1,1.7,2.3,3.4,3.5,5
		c0.1-0.2,0.2-0.3,0.3-0.5c0.9-1.6,2.1-2.9,3.3-3.8c-1-0.5-2.1-1.3-2.9-2.5c-1.3-1.8-1.7-3.6-1.5-5.2
		C127.1,13.1,126.2,12.6,125.3,12.2"/>
	<path clip-path="url(#SVGID_2_)" fill="#734338" d="M132.4,21.3c-1.2,0.9-2.4,2.2-3.3,3.8c-0.1,0.2-0.2,0.3-0.3,0.5
		c0.6,0.8,1.1,1.5,1.7,2.3c2-1.6,2.9-4.1,2.9-5.9c0-0.1,0-0.2,0-0.3C133.1,21.5,132.8,21.4,132.4,21.3"/>
	<path clip-path="url(#SVGID_2_)" fill="#F15A22" d="M125.6,7.8C125.6,7.8,125.5,7.8,125.6,7.8c-0.1,0-0.1,0-0.2,0
		c-0.3,0-0.6,0.2-1,0.5c0.5,1.1,0.8,2.4,0.9,3.8c0.9,0.4,1.8,0.9,2.7,1.4c0.1-0.8,0.3-1.5,0.7-2.2c-0.5-0.8-1.1-1.6-1.7-2.5
		C126.5,8.2,126,7.8,125.6,7.8"/>
	<path clip-path="url(#SVGID_2_)" fill="#F37021" d="M131.5,8.8c-0.1,1.3-0.1,2.6-0.2,3.8c-0.1,0.8-0.4,1.3-0.7,1.5c0,0,0,0-0.1,0.1
		c0.2,0.3,0.5,0.7,0.7,1c1.4,1.8,1.9,3.8,2.1,5.5c0.6-0.4,1.3-0.7,1.9-1c0.8-0.3,1.9-0.6,3-0.6C136,15.7,133.8,12.3,131.5,8.8"/>
	<path clip-path="url(#SVGID_2_)" fill="#753A32" d="M138.3,19c-1.1,0.1-2.1,0.3-3,0.6c-0.6,0.3-1.3,0.6-1.9,1c0,0.3,0,0.7,0,1
		c0.6,0.2,1.3,0.3,1.9,0.3c1.6,0,3.1-0.5,4.1-1.2C139,20.1,138.6,19.6,138.3,19"/>
	<path clip-path="url(#SVGID_2_)" fill="#EF4123" d="M131.3,8.4c-0.1,0.1-0.3,0.2-0.4,0.3c-0.8,0.6-1.6,1.5-2.1,2.7
		c0.6,0.9,1.2,1.9,1.8,2.8c0,0,0.1,0,0.1-0.1c0.3-0.1,0.6-0.7,0.7-1.5c0.1-1.2,0.2-2.5,0.2-3.8C131.4,8.6,131.4,8.5,131.3,8.4"/>
	<path clip-path="url(#SVGID_2_)" fill="#F15A22" d="M128,13.5c-0.2,1.6,0.1,3.4,1.5,5.2c0.9,1.2,1.9,2,2.9,2.5
		c0.3-0.2,0.6-0.4,0.9-0.6c-0.2-1.8-0.8-3.7-2.1-5.5c-0.2-0.3-0.5-0.7-0.7-1c-0.1,0.1-0.3,0.1-0.5,0.1c-0.3,0-0.7-0.1-1-0.3
		C128.7,13.8,128.3,13.7,128,13.5"/>
	<path clip-path="url(#SVGID_2_)" fill="#753A32" d="M133.4,20.6c-0.3,0.2-0.6,0.4-0.9,0.6c0.3,0.1,0.6,0.3,1,0.4
		C133.4,21.3,133.4,21,133.4,20.6"/>
	<path clip-path="url(#SVGID_2_)" fill="#EF4123" d="M128.7,11.3c-0.3,0.7-0.6,1.4-0.7,2.2c0.3,0.1,0.6,0.3,0.9,0.4
		c0.4,0.2,0.8,0.3,1,0.3c0.2,0,0.4,0,0.5-0.1C129.9,13.2,129.3,12.3,128.7,11.3"/>
	<path clip-path="url(#SVGID_2_)" fill="#815B9C" d="M109.8,17.2c-1.4,2.2-2.9,4.3-4.3,6.4c1.5,1,2.7,2.2,3.5,3.3
		c0.6,0.8,1.1,1.7,1.6,2.7c2-1,3.9-1.5,5.7-1.7c0.7-0.9,1.4-1.9,2.1-2.9c-0.5-1.1-0.7-2.2-0.8-3.1c0-0.1,0-0.2,0-0.3
		c-0.9-0.4-1.9-0.7-2.8-1.1C112.6,19.8,111,18.5,109.8,17.2"/>
	<path clip-path="url(#SVGID_2_)" fill="#524D85" d="M116.3,27.9c-1.8,0.2-3.7,0.7-5.7,1.7c0.6,1.3,1.2,2.8,1.5,4.4
		c0.5-1,1.1-1.9,1.8-2.8l0.8-1C115.1,29.4,115.7,28.7,116.3,27.9"/>
	<path clip-path="url(#SVGID_2_)" fill="#434090" d="M105.5,23.5c-0.2,0.3-0.5,0.7-0.7,1c-0.2,0.3-0.4,0.6-0.6,0.9
		c0.2,2.4,1.1,4.4,2.2,5.9c0.2,0.2,0.3,0.5,0.5,0.7c0.7-0.6,1.6-1.2,2.5-1.8c0.4-0.2,0.8-0.4,1.2-0.6c-0.5-1-1-1.9-1.6-2.7
		C108.2,25.7,107,24.5,105.5,23.5"/>
	<path clip-path="url(#SVGID_2_)" fill="#34407B" d="M110.6,29.6c-0.4,0.2-0.8,0.4-1.2,0.6c-0.9,0.6-1.8,1.2-2.5,1.8
		c1.1,1.2,2.8,2.4,4.8,2.8c0.1-0.3,0.3-0.5,0.4-0.8C111.7,32.4,111.2,30.9,110.6,29.6"/>
	<path clip-path="url(#SVGID_2_)" fill="#8A4638" d="M117.6,21.6c0,0.1,0,0.2,0,0.3c0,0.9,0.3,2,0.8,3.1c0.6-0.8,1.2-1.6,1.7-2.4
		C119.2,22.3,118.4,21.9,117.6,21.6"/>
	<path clip-path="url(#SVGID_2_)" fill="#F37021" d="M117.5,5.4c-2.2,3.1-4.3,6.4-6.5,9.8c1.2,0.5,2.3,1,3.5,1.4
		c1.3,0.5,2.5,1.1,3.4,1.9c0.3-1.1,0.9-2.3,1.7-3.4c1-1.3,1.9-2.8,2.8-4.2c-2.2-1-3.6-2.6-4.5-4.1C117.9,6.4,117.7,5.9,117.5,5.4"/>
	<path clip-path="url(#SVGID_2_)" fill="#EF4123" d="M119.4,3c-0.3,0.3-0.6,0.7-1,1.2c-0.3,0.4-0.6,0.9-0.9,1.3
		c0.1,0.5,0.3,1,0.6,1.4c0.9,1.6,2.3,3.1,4.5,4.1c0.5-0.7,0.9-1.4,1.4-2.1c0.1-0.2,0.3-0.4,0.4-0.5c-0.4-0.9-0.9-1.8-1.4-2.5
		C122.3,4.8,121,3.7,119.4,3"/>
	<path clip-path="url(#SVGID_2_)" fill="#F15A22" d="M122.6,10.9c-0.9,1.4-1.8,2.9-2.8,4.2c-0.8,1.1-1.4,2.2-1.7,3.4
		c1.2,0.9,2.1,2,2.8,3c0,0,0,0,0,0c0.9-1.3,1.8-2.6,2.6-4c0.6,1,1.3,2,1.9,2.9c0-2.3-0.1-4.8,0-7.1c0-0.4,0-0.8,0-1.2
		c-0.8-0.4-1.6-0.8-2.4-1.1C122.8,11,122.7,11,122.6,10.9"/>
	<path clip-path="url(#SVGID_2_)" fill="#EF4123" d="M124.4,8.4c-0.1,0.1-0.3,0.3-0.4,0.5c-0.5,0.7-0.9,1.4-1.4,2.1
		c0.1,0,0.2,0.1,0.3,0.1c0.8,0.4,1.6,0.7,2.4,1.1C125.2,10.8,124.9,9.5,124.4,8.4"/>
	<path clip-path="url(#SVGID_2_)" fill="#854337" d="M111.1,15.2c-0.4,0.7-0.8,1.3-1.3,2c1.2,1.4,2.8,2.6,5,3.4
		c1,0.3,1.9,0.7,2.8,1.1c0-1,0.1-2,0.5-3.1c-1-0.8-2.1-1.4-3.4-1.9C113.4,16.2,112.3,15.7,111.1,15.2"/>
	<path clip-path="url(#SVGID_2_)" fill="#883C2E" d="M118.1,18.5c-0.3,1.1-0.5,2.1-0.5,3.1c0.8,0.3,1.6,0.7,2.5,1
		c0.3-0.4,0.5-0.7,0.8-1.1c0,0,0,0,0,0C120.1,20.5,119.2,19.4,118.1,18.5"/>
	<rect x="193.6" y="95" clip-path="url(#SVGID_2_)" fill="#FFFFFF" width="23" height="5"/>
	<polygon clip-path="url(#SVGID_2_)" fill="#FFFFFF" points="76.6,95.9 70.9,95.9 70.9,128.8 70.9,133.7 70.9,134.5 93.6,134.5 
		93.6,128.8 76.6,128.8 	"/>
	<polygon clip-path="url(#SVGID_2_)" fill="#FFFFFF" points="164.7,100 173.3,100 173.3,100 173.3,134.6 179,134.6 179,100 179,100 
		187.7,100 187.7,95 164.7,95 	"/>
	<rect x="193.6" y="112" clip-path="url(#SVGID_2_)" fill="#FFFFFF" width="23" height="5.1"/>
	<rect x="193.6" y="129.5" clip-path="url(#SVGID_2_)" fill="#FFFFFF" width="23" height="5"/>
	<path clip-path="url(#SVGID_2_)" fill="#FFFFFF" d="M145.4,117c0.1,0,0.2,0,0.4,0l0,0c3.8-0.1,6.9-1,9.2-3c2.4-2,3.5-4.7,3.5-8
		c0-3.4-1.2-6.1-3.5-8.1c-2.4-2-5.5-3-9.5-3h-11v5c2.8,0,13.2,0,14.4,0.5c1.2,0.4,2.1,1.1,2.8,2.1c0.7,1,1,2.2,1,3.4
		c0,1.2-0.3,2.4-1,3.4c-0.7,1-1.6,1.7-2.8,2.1c-0.4,0.1-1.5,0.2-2.9,0.3l0,0c-1.6,0.1-3.6,0.2-5.6,0.2h-5.9l17.5,22.4h7L145.2,117
		H145.4z"/>
	<polygon clip-path="url(#SVGID_2_)" fill="#FFFFFF" points="245.2,95 238.1,95 222.5,114.8 238.1,134.6 245.2,134.6 229.4,114.8 	
		"/>
	<path clip-path="url(#SVGID_2_)" fill="#FFFFFF" d="M114,95c-5.8,0-9.9,2.2-12.2,6.6c-2.1,3.9-2.3,8.8-2.3,12.2
		c0,7.8,0,20.8,14.3,20.8c6.1,0,10.3-2.2,12.5-6.5c1.9-3.6,2.1-8.1,2.1-12.5C128.5,107.9,128.5,95,114,95 M121.6,124.8
		c-1.3,3.3-3.9,4.9-7.6,4.9c-8.7,0-8.7-9.9-8.7-15.8c0-2.5,0.1-6.3,1.4-9.2c1.4-3.3,3.9-5,7.4-5c8.8,0,8.8,9.7,8.8,15.6
		C122.8,118.7,122.7,122.1,121.6,124.8"/>
	<path clip-path="url(#SVGID_2_)" fill="#FFFFFF" d="M50.4,95c-5.8,0-9.9,2.2-12.2,6.6c-2.1,3.9-2.3,8.8-2.3,12.2
		c0,7.8,0,20.8,14.3,20.8c6.1,0,10.3-2.2,12.5-6.5c1.9-3.6,2.1-8.1,2.1-12.5C64.9,107.9,64.9,95,50.4,95 M58,124.8
		c-1.4,3.3-3.9,4.9-7.6,4.9c-8.7,0-8.7-9.9-8.7-15.8c0-2.5,0.1-6.3,1.4-9.2c1.4-3.3,3.9-5,7.4-5c8.8,0,8.8,9.7,8.8,15.6
		C59.2,118.7,59.1,122.1,58,124.8"/>
	<path clip-path="url(#SVGID_2_)" fill="#FFFFFF" d="M23.7,124.8c-1.4,3.3-3.9,4.9-7.6,4.9c-4.6,0-6.8-2.7-7.8-6.2
		c-0.9-3.1-0.9-6.8-0.9-9.5c0-2.2,0.1-5.3,0.9-8c0.1-0.4,0.3-0.8,0.4-1.2c1.4-3.3,3.9-5,7.4-5c4.7,0,6.9,2.8,7.9,6.2H30
		c-1.2-5.8-4.6-11-13.8-11c-5.8,0-9.9,2.2-12.2,6.6c-0.7,1.4-1.2,2.9-1.6,4.4c-0.6,2.8-0.7,5.6-0.7,7.7c0,2.9,0,6.4,0.7,9.8
		c1.2,5.8,4.5,11,13.6,11c6.1,0,10.3-2.2,12.5-6.5c0.7-1.4,1.2-2.9,1.5-4.5h-5.9C24,124,23.9,124.4,23.7,124.8"/>
	<path clip-path="url(#SVGID_2_)" fill="#FFFFFF" d="M253.1,94.7c1.5,0,2.7,1.2,2.7,2.7c0,1.5-1.2,2.7-2.7,2.7
		c-1.5,0-2.7-1.2-2.7-2.7C250.3,95.9,251.5,94.7,253.1,94.7L253.1,94.7z M253,95.2c-1.2,0-2,0.9-2,2.1c0,1.2,0.9,2.1,2.1,2.1
		c1.2,0,2-1,2-2.1C255.1,96.2,254.2,95.2,253,95.2L253,95.2z M252.6,98.8H252v-2.7c0.2,0,0.5-0.1,1-0.1c0.5,0,0.7,0.1,0.9,0.2
		c0.2,0.1,0.3,0.3,0.3,0.6c0,0.3-0.3,0.5-0.6,0.6v0c0.3,0.1,0.4,0.3,0.5,0.7c0.1,0.4,0.1,0.6,0.2,0.7h-0.6c-0.1-0.1-0.1-0.3-0.2-0.7
		c-0.1-0.3-0.2-0.4-0.6-0.4h-0.3V98.8z M252.6,97.2h0.3c0.3,0,0.6-0.1,0.6-0.4c0-0.2-0.2-0.4-0.6-0.4c-0.2,0-0.3,0-0.3,0V97.2z"/>
</g>
</svg>
